<svg xmlns:xlink="http://www.w3.org/1999/xlink" xmlns="http://www.w3.org/2000/svg" width="300" height="300">

        <line x1="0" x2="300" y1="150" y2="150" stroke="#CC6833"></line>
        <line x1="150" x2="150" y1="0" y2="300" stroke="#CC6833"></line>

        <polygon points="150,0 145,15 155,15" stroke="#FFFF00"></polygon>
        <polygon points="300,150 285,145 285,155" stroke="#FFFF00"></polygon>

        <polygon points=" 250,100 150,100" stroke="#CC6833"></polygon>
        <polygon points=" 250,100 250,150" stroke="#CC6833"></polygon>

        <path d="M150,250 A100,100 90 0,1 50,150 L 150,150 Z" stroke="#CC6833"></path>

        <polygon points="150,150 200,150 150,200" stroke="#CC6833"></polygon>

        <text x="285" y="135" stroke="#CC6833">X</text>
        <text x="160" y="15" stroke="#CC6833">Y</text>

        <line x1="100" x2="100" y1="140" y2="160" stroke="#CC6833"></line>
        <line x1="200" x2="200" y1="140" y2="160" stroke="#CC6833"></line>

        <line x1="140" x2="160" y1="100" y2="100" stroke="#CC6833"></line>
        <line x1="140" x2="160" y1="200" y2="200" stroke="#CC6833"></line>

        <text x="40" y="130" stroke="#CC6833">-R</text>
        <text x="85" y="130" stroke="#CC6833">-R/2</text>
        <text x="190" y="130" stroke="#CC6833">R/2</text>
        <text x="245" y="130" stroke="#CC6833">R</text>

        <text x="170" y="52.5" stroke="#CC6833">R</text>
        <text x="170" y="102.5" stroke="#CC6833">R/2</text>
        <text x="170" y="202.5" stroke="#CC6833">-R/2</text>
        <text x="170" y="252.5" stroke="#CC6833">-R</text>
    </svg>